<svg width="100" height="100" viewBox="0 0 100 100" fill="none" xmlns="http://www.w3.org/2000/svg">
<g clip-path="url(#clip0_107_16)">
<path d="M25 55.2134L25.4146 54.6545L45.0248 18.8314L45.0662 18.4521L36.4219 2.81955C35.6973 1.51008 33.6582 1.84121 33.4207 3.30712L25 55.2134Z" fill="#FFC24A"/>
<path d="M51.3682 30.2766L57.8047 23.9305L51.3662 12.0975C50.7551 10.9773 49.0486 10.974 48.4439 12.0975L45.0039 18.413V18.9507L51.368 30.2766H51.3682Z" fill="#F4BD62"/>
<path d="M25 55.2132L25.1879 55.0312L25.8707 54.7642L50.9639 30.6958L51.2818 29.8627L45.0221 18.3787L25 55.2132Z" fill="#F6820C"/>
<path d="M52.1721 67.3515L74.882 55.158L68.3969 16.706C68.1939 15.5029 66.6609 15.0274 65.7664 15.8899L25 55.2133L47.5797 67.3505C48.2815 67.7278 49.0719 67.9259 49.8758 67.9261C50.6796 67.9262 51.4701 67.7284 52.1721 67.3515" fill="#FDE068"/>
<path d="M74.6785 55.0558L68.2426 16.8957C68.0414 15.7017 66.7664 15.2078 65.8787 16.0639L25.252 55.1385L47.5838 67.1554C48.2803 67.5298 49.0647 67.7264 49.8623 67.7266C50.66 67.7268 51.4445 67.5306 52.1412 67.1565L74.6787 55.0556L74.6785 55.0558Z" fill="#FCCA3F"/>
<path d="M52.1719 66.9922C51.4699 67.3691 50.6795 67.5669 49.8757 67.5667C49.0719 67.5665 48.2816 67.3684 47.5797 66.9912L25.1819 55.0285L25.0002 55.2133L47.5797 67.3506C48.2816 67.7278 49.072 67.9259 49.8758 67.9261C50.6796 67.9263 51.4701 67.7285 52.1721 67.3515L74.8821 55.1581L74.8264 54.8286L52.1721 66.9924L52.1719 66.9922Z" fill="#EEAB37"/>
<g clip-path="url(#clip1_107_16)">
<path d="M78.4164 39.3476C73.1889 36.9901 67.5855 35.2476 61.7259 34.2568C61.6737 34.2468 61.6197 34.2532 61.5714 34.2753C61.523 34.2973 61.4827 34.3338 61.456 34.3798C60.7385 35.6405 59.939 37.284 59.3787 38.5823C53.1641 37.6538 46.846 37.6538 40.6314 38.5823C40.0073 37.1434 39.3035 35.7404 38.5234 34.3798C38.4969 34.3333 38.4569 34.2959 38.4087 34.2727C38.3604 34.2495 38.3063 34.2416 38.2534 34.25C32.3973 35.2408 26.7939 36.9833 21.563 39.3442C21.518 39.3631 21.4799 39.3953 21.4537 39.4365C10.821 55.0677 7.9066 70.3129 9.33818 85.3667C9.34217 85.4036 9.35361 85.4392 9.37182 85.4716C9.39003 85.5039 9.41462 85.5321 9.4441 85.5546C15.6501 90.0729 22.5721 93.5148 29.9202 95.7363C29.9714 95.7521 30.0262 95.752 30.0774 95.7362C30.1286 95.7203 30.1738 95.6894 30.2072 95.6474C31.7884 93.5328 33.1896 91.2893 34.396 88.9405C34.4128 88.9084 34.4224 88.8731 34.4243 88.8369C34.4262 88.8008 34.4203 88.7646 34.407 88.7309C34.3938 88.6972 34.3734 88.6668 34.3473 88.6416C34.3213 88.6165 34.2901 88.5972 34.2559 88.5852C32.0488 87.754 29.9102 86.751 27.8599 85.5854C27.8231 85.5643 27.792 85.5345 27.7696 85.4985C27.7471 85.4625 27.7339 85.4215 27.7312 85.3792C27.7285 85.3369 27.7364 85.2945 27.7541 85.256C27.7718 85.2174 27.7987 85.1838 27.8326 85.1583C28.2631 84.8405 28.6936 84.5091 29.1036 84.1777C29.1405 84.1479 29.185 84.1289 29.232 84.1229C29.2791 84.1169 29.3269 84.124 29.3701 84.1435C42.7874 90.1705 57.3184 90.1705 70.5785 84.1435C70.6219 84.1228 70.6702 84.1148 70.7179 84.1202C70.7656 84.1256 70.8108 84.1444 70.8484 84.1743C71.2584 84.5091 71.6855 84.8405 72.1194 85.1583C72.1536 85.1833 72.1811 85.2164 72.1993 85.2546C72.2176 85.2929 72.2261 85.335 72.224 85.3773C72.222 85.4197 72.2095 85.4608 72.1877 85.4971C72.1658 85.5334 72.1354 85.5637 72.0989 85.5854C70.0558 86.7607 67.9306 87.755 65.6995 88.5818C65.6653 88.5942 65.634 88.6138 65.608 88.6393C65.5819 88.6648 65.5615 88.6955 65.5483 88.7294C65.535 88.7634 65.5291 88.7998 65.5311 88.8362C65.533 88.8726 65.5427 88.9082 65.5594 88.9405C66.7894 91.2878 68.1971 93.5223 69.7449 95.644C69.777 95.6876 69.8219 95.7201 69.8732 95.7372C69.9246 95.7544 69.98 95.7552 70.0319 95.7397C77.3926 93.5245 84.3258 90.0809 90.5387 85.5546C90.569 85.5334 90.5944 85.506 90.6133 85.4742C90.6321 85.4424 90.644 85.4069 90.648 85.3701C92.3564 67.9656 87.7849 52.8435 78.5223 39.4433C78.4996 39.3997 78.462 39.3658 78.4164 39.3476ZM36.4016 76.1998C32.3631 76.1998 29.0319 72.5474 29.0319 68.0681C29.0319 63.5854 32.2982 59.9364 36.4016 59.9364C40.5358 59.9364 43.8363 63.6162 43.7714 68.0681C43.7714 72.5508 40.505 76.1998 36.4016 76.1998V76.1998ZM63.6495 76.1998C59.6076 76.1998 56.2798 72.5474 56.2798 68.0681C56.2798 63.5854 59.5427 59.9364 63.6495 59.9364C67.7837 59.9364 71.0842 63.6162 71.0193 68.0681C71.0193 72.5508 67.7871 76.1998 63.6495 76.1998V76.1998Z" fill="#CCCCCC"/>
</g>
<mask id="mask0_107_16" style="mask-type:alpha" maskUnits="userSpaceOnUse" x="9" y="24" width="82" height="82">
<g clip-path="url(#clip2_107_16)">
<path d="M78.4164 39.3476C73.1889 36.9901 67.5855 35.2476 61.7259 34.2568C61.6737 34.2468 61.6197 34.2532 61.5714 34.2753C61.523 34.2973 61.4827 34.3338 61.456 34.3798C60.7385 35.6405 59.939 37.284 59.3787 38.5823C53.1641 37.6538 46.846 37.6538 40.6314 38.5823C40.0073 37.1434 39.3035 35.7404 38.5234 34.3798C38.4969 34.3333 38.4569 34.2959 38.4087 34.2727C38.3604 34.2495 38.3063 34.2416 38.2534 34.25C32.3973 35.2408 26.7939 36.9833 21.563 39.3442C21.518 39.3631 21.4799 39.3953 21.4537 39.4365C10.821 55.0677 7.9066 70.3129 9.33818 85.3667C9.34217 85.4036 9.35361 85.4392 9.37182 85.4716C9.39003 85.5039 9.41462 85.5321 9.4441 85.5546C15.6501 90.0729 22.5721 93.5148 29.9202 95.7363C29.9714 95.7521 30.0262 95.752 30.0774 95.7362C30.1286 95.7203 30.1738 95.6894 30.2072 95.6474C31.7884 93.5328 33.1896 91.2893 34.396 88.9405C34.4128 88.9084 34.4224 88.8731 34.4243 88.8369C34.4262 88.8008 34.4203 88.7646 34.407 88.7309C34.3938 88.6972 34.3734 88.6668 34.3473 88.6416C34.3213 88.6165 34.2901 88.5972 34.2559 88.5852C32.0488 87.754 29.9102 86.751 27.8599 85.5854C27.8231 85.5643 27.792 85.5345 27.7696 85.4985C27.7471 85.4625 27.7339 85.4215 27.7312 85.3792C27.7285 85.3369 27.7364 85.2945 27.7541 85.256C27.7718 85.2174 27.7987 85.1838 27.8326 85.1583C28.2631 84.8405 28.6936 84.5091 29.1036 84.1777C29.1405 84.1479 29.185 84.1289 29.232 84.1229C29.2791 84.1169 29.3269 84.124 29.3701 84.1435C42.7874 90.1705 57.3184 90.1705 70.5785 84.1435C70.6219 84.1228 70.6702 84.1148 70.7179 84.1202C70.7656 84.1256 70.8108 84.1444 70.8484 84.1743C71.2584 84.5091 71.6855 84.8405 72.1194 85.1583C72.1536 85.1833 72.1811 85.2164 72.1993 85.2546C72.2176 85.2929 72.2261 85.335 72.224 85.3773C72.222 85.4197 72.2095 85.4608 72.1877 85.4971C72.1658 85.5334 72.1354 85.5637 72.0989 85.5854C70.0558 86.7607 67.9306 87.755 65.6995 88.5818C65.6653 88.5942 65.634 88.6138 65.608 88.6393C65.5819 88.6648 65.5615 88.6955 65.5483 88.7294C65.535 88.7634 65.5291 88.7998 65.5311 88.8362C65.533 88.8726 65.5427 88.9082 65.5594 88.9405C66.7894 91.2878 68.1971 93.5223 69.7449 95.644C69.777 95.6876 69.8219 95.7201 69.8732 95.7372C69.9246 95.7544 69.98 95.7552 70.0319 95.7397C77.3926 93.5245 84.3258 90.0809 90.5387 85.5546C90.569 85.5334 90.5944 85.506 90.6133 85.4742C90.6321 85.4424 90.644 85.4069 90.648 85.3701C92.3564 67.9656 87.7849 52.8435 78.5223 39.4433C78.4996 39.3997 78.462 39.3658 78.4164 39.3476ZM36.4016 76.1998C32.3631 76.1998 29.0319 72.5474 29.0319 68.0681C29.0319 63.5854 32.2982 59.9364 36.4016 59.9364C40.5358 59.9364 43.8363 63.6162 43.7714 68.0681C43.7714 72.5508 40.505 76.1998 36.4016 76.1998V76.1998ZM63.6495 76.1998C59.6076 76.1998 56.2798 72.5474 56.2798 68.0681C56.2798 63.5854 59.5427 59.9364 63.6495 59.9364C67.7837 59.9364 71.0842 63.6162 71.0193 68.0681C71.0193 72.5508 67.7871 76.1998 63.6495 76.1998V76.1998Z" fill="#CCCCCC"/>
</g>
</mask>
<g mask="url(#mask0_107_16)">
<g style="mix-blend-mode:color">
<rect x="2" y="28" width="98" height="72" fill="url(#paint0_linear_107_16)"/>
</g>
</g>
</g>
<defs>
<linearGradient id="paint0_linear_107_16" x1="51" y1="28" x2="51" y2="100" gradientUnits="userSpaceOnUse">
<stop stop-color="#FCCA3F"/>
<stop offset="1" stop-color="#FF8100"/>
</linearGradient>
<clipPath id="clip0_107_16">
<rect width="100" height="100" fill="white"/>
</clipPath>
<clipPath id="clip1_107_16">
<rect width="82" height="82" fill="white" transform="translate(9 24)"/>
</clipPath>
<clipPath id="clip2_107_16">
<rect width="82" height="82" fill="white" transform="translate(9 24)"/>
</clipPath>
</defs>
</svg>
